<?xml version="1.0" encoding="UTF-8" standalone="no"?>
<svg
   xmlns:dc="http://purl.org/dc/elements/1.1/"
   xmlns:cc="http://creativecommons.org/ns#"
   xmlns:rdf="http://www.w3.org/1999/02/22-rdf-syntax-ns#"
   xmlns:svg="http://www.w3.org/2000/svg"
   xmlns="http://www.w3.org/2000/svg"
   xmlns:sodipodi="http://sodipodi.sourceforge.net/DTD/sodipodi-0.dtd"
   xmlns:inkscape="http://www.inkscape.org/namespaces/inkscape"
   version="1.1"
   id="svg2"
   inkscape:version="0.48.4 r9939"
   width="18"
   height="18"
   sodipodi:docname="trello-description.svg">
  <metadata
     id="metadata10">
    <rdf:RDF>
      <cc:Work
         rdf:about="">
        <dc:format>image/svg+xml</dc:format>
        <dc:type
           rdf:resource="http://purl.org/dc/dcmitype/StillImage" />
        <dc:title />
      </cc:Work>
    </rdf:RDF>
  </metadata>
  <defs
     id="defs8" />
  <sodipodi:namedview
     pagecolor="#ffffff"
     bordercolor="#666666"
     borderopacity="1"
     objecttolerance="10"
     gridtolerance="10"
     guidetolerance="10"
     inkscape:pageopacity="0"
     inkscape:pageshadow="2"
     inkscape:window-width="1096"
     inkscape:window-height="676"
     id="namedview6"
     showgrid="false"
     inkscape:zoom="10.148731"
     inkscape:cx="0.038131071"
     inkscape:cy="-1.4666786"
     inkscape:window-x="2418"
     inkscape:window-y="178"
     inkscape:window-maximized="0"
     inkscape:current-layer="svg2"
     fit-margin-top="0"
     fit-margin-left="0"
     fit-margin-right="0"
     fit-margin-bottom="0" />
  <path
     d="m 1.125,0 h 15.75 Q 17.349609,0 17.674805,0.37165 18,0.7433 18,1.28571 18,1.82812 17.674805,2.19978 17.349609,2.57143 16.875,2.57143 H 1.125 q -0.47460938,0 -0.79980469,-0.37165 Q 0,1.82812 0,1.28571 0,0.7433 0.32519531,0.37165 0.65039062,0 1.125,0 V 0 z M 0,6.42857 Q 0,5.88616 0.32519531,5.51451 0.65039062,5.14286 1.125,5.14286 h 15.75 q 0.474609,0 0.799805,0.37165 Q 18,5.88616 18,6.42857 18,6.97098 17.674805,7.34263 17.349609,7.71429 16.875,7.71429 H 1.125 q -0.47460938,0 -0.79980469,-0.37166 Q 0,6.97098 0,6.42857 v 0 z m 0,5.14286 Q 0,11.02902 0.32519531,10.65737 0.65039062,10.28571 1.125,10.28571 h 15.75 q 0.474609,0 0.799805,0.37166 Q 18,11.02902 18,11.57143 18,12.11384 17.674805,12.48549 17.349609,12.85714 16.875,12.85714 H 1.125 q -0.47460938,0 -0.79980469,-0.37165 Q 0,12.11384 0,11.57143 v 0 z m 0,5.14286 Q 0,16.17187 0.32519531,15.80022 0.65039062,15.42857 1.125,15.42857 h 9 q 0.474609,0 0.799805,0.37165 0.325195,0.37165 0.325195,0.91407 0,0.54241 -0.325195,0.91406 Q 10.599609,18 10.125,18 h -9 Q 0.65039062,18 0.32519531,17.62835 0,17.2567 0,16.71429 z"
     id="path4"
     inkscape:connector-curvature="0"
     style="fill:#999999;fill-opacity:1" />
</svg>
